<?xml version="1.0" encoding="UTF-8" standalone="no"?>
<!-- Generated by Graphviz version 2.20.2 (Wed Sep 16 11:12:11 UTC 2009)
 -->

<!-- Title: LanguageNodes Pages: 1 -->

<svg
   xmlns:dc="http://purl.org/dc/elements/1.1/"
   xmlns:cc="http://creativecommons.org/ns#"
   xmlns:rdf="http://www.w3.org/1999/02/22-rdf-syntax-ns#"
   xmlns:svg="http://www.w3.org/2000/svg"
   xmlns="http://www.w3.org/2000/svg"
   xmlns:sodipodi="http://sodipodi.sourceforge.net/DTD/sodipodi-0.dtd"
   xmlns:inkscape="http://www.inkscape.org/namespaces/inkscape"
   width="2104.7244"
   height="2979.9211"
   viewBox="0 0 1683.7795 2383.9369"
   id="svg2"
   version="1.1"
   inkscape:version="0.47pre4 r22446"
   sodipodi:docname="languagenodes.svg">
  <metadata
     id="metadata680">
    <rdf:RDF>
      <cc:Work
         rdf:about="">
        <dc:format>image/svg+xml</dc:format>
        <dc:type
           rdf:resource="http://purl.org/dc/dcmitype/StillImage" />
      </cc:Work>
    </rdf:RDF>
  </metadata>
  <defs
     id="defs678">
    <inkscape:perspective
       sodipodi:type="inkscape:persp3d"
       inkscape:vp_x="0 : 1056.875 : 1"
       inkscape:vp_y="0 : 1000 : 0"
       inkscape:vp_z="1770 : 1056.875 : 1"
       inkscape:persp3d-origin="885 : 704.58333 : 1"
       id="perspective682" />
  </defs>
  <sodipodi:namedview
     pagecolor="#ffffff"
     bordercolor="#666666"
     borderopacity="1"
     objecttolerance="10"
     gridtolerance="10"
     guidetolerance="10"
     inkscape:pageopacity="0"
     inkscape:pageshadow="2"
     inkscape:window-width="1041"
     inkscape:window-height="691"
     id="namedview676"
     showgrid="false"
     inkscape:zoom="0.11164991"
     inkscape:cx="885"
     inkscape:cy="1056.875"
     inkscape:window-x="56"
     inkscape:window-y="55"
     inkscape:window-maximized="0"
     inkscape:current-layer="svg2" />
  <g
     id="graph0"
     class="graph"
     transform="translate(137.88975,2033.4684)">
    <title
       id="title5">LanguageNodes</title>
    <polygon
       style="fill:none;stroke:none"
       points="-4,4 -4,-1687 1412,-1687 1412,4 -4,4 "
       id="polygon7" />
    <!-- LanguageNode -->
    <g
       id="node1"
       class="node">
      <title
         id="title10">LanguageNode</title>
      <polygon
         style="fill:none;stroke:#000000"
         points="88,-1075 2.84217e-14,-1075 7.10543e-15,-1039 88,-1039 88,-1075 "
         id="polygon12" />
      <text
         x="44"
         y="-1054.5"
         style="font-size:10px;text-anchor:middle;font-family:monospace"
         id="text14">LanguageNode</text>
    </g>
    <!-- NonValuedExpressionNode -->
    <g
       id="node3"
       class="node">
      <title
         id="title17">NonValuedExpressionNode</title>
      <polygon
         style="fill:none;stroke:#000000"
         points="278,-1278 124,-1278 124,-1242 278,-1242 278,-1278 "
         id="polygon19" />
      <text
         x="201"
         y="-1257.5"
         style="font-size:10px;text-anchor:middle;font-family:monospace"
         id="text21">NonValuedExpressionNode</text>
    </g>
    <!-- LanguageNode&#45;&#45;NonValuedExpressionNode -->
    <g
       id="edge2"
       class="edge">
      <title
         id="title24">LanguageNode--NonValuedExpressionNode</title>
      <path
         style="fill:none;stroke:#000000"
         d="m 58,-1075 c 29,-39 99,-128 129,-167"
         id="path26" />
    </g>
    <!-- ValuedExpressionNode -->
    <g
       id="node5"
       class="node">
      <title
         id="title29">ValuedExpressionNode</title>
      <polygon
         style="fill:none;stroke:#000000"
         points="269,-846 133,-846 133,-810 269,-810 269,-846 "
         id="polygon31" />
      <text
         x="201"
         y="-825.5"
         style="font-size:10px;text-anchor:middle;font-family:monospace"
         id="text33">ValuedExpressionNode</text>
    </g>
    <!-- LanguageNode&#45;&#45;ValuedExpressionNode -->
    <g
       id="edge4"
       class="edge">
      <title
         id="title36">LanguageNode--ValuedExpressionNode</title>
      <path
         style="fill:none;stroke:#000000"
         d="m 57,-1039 c 29,44 102,150 132,193"
         id="path38" />
    </g>
    <!-- DeclarationNode -->
    <g
       id="node7"
       class="node">
      <title
         id="title41">DeclarationNode</title>
      <polygon
         style="fill:none;stroke:#000000"
         points="459,-1494 353,-1494 353,-1458 459,-1458 459,-1494 "
         id="polygon43" />
      <text
         x="406"
         y="-1473.5"
         style="font-size:10px;text-anchor:middle;font-family:monospace"
         id="text45">DeclarationNode</text>
    </g>
    <!-- NonValuedExpressionNode&#45;&#45;DeclarationNode -->
    <g
       id="edge6"
       class="edge">
      <title
         id="title48">NonValuedExpressionNode--DeclarationNode</title>
      <path
         style="fill:none;stroke:#000000"
         d="m 210,-1278 c 17,-32 57,-100 104,-144 16,-14 36,-27 53,-36"
         id="path50" />
    </g>
    <!-- DeclarationGroupNode -->
    <g
       id="node9"
       class="node">
      <title
         id="title53">DeclarationGroupNode</title>
      <polygon
         style="fill:none;stroke:#000000"
         points="474,-1413 338,-1413 338,-1377 474,-1377 474,-1413 "
         id="polygon55" />
      <text
         x="406"
         y="-1392.5"
         style="font-size:10px;text-anchor:middle;font-family:monospace"
         id="text57">DeclarationGroupNode</text>
    </g>
    <!-- NonValuedExpressionNode&#45;&#45;DeclarationGroupNode -->
    <g
       id="edge8"
       class="edge">
      <title
         id="title60">NonValuedExpressionNode--DeclarationGroupNode</title>
      <path
         style="fill:none;stroke:#000000"
         d="m 215,-1278 c 20,-24 58,-66 99,-90 7,-4 15,-8 24,-11"
         id="path62" />
    </g>
    <!-- AssignmentNode -->
    <g
       id="node11"
       class="node">
      <title
         id="title65">AssignmentNode</title>
      <polygon
         style="fill:none;stroke:#000000"
         points="456,-1359 356,-1359 356,-1323 456,-1323 456,-1359 "
         id="polygon67" />
      <text
         x="406"
         y="-1338.5"
         style="font-size:10px;text-anchor:middle;font-family:monospace"
         id="text69">AssignmentNode</text>
    </g>
    <!-- NonValuedExpressionNode&#45;&#45;AssignmentNode -->
    <g
       id="edge10"
       class="edge">
      <title
         id="title72">NonValuedExpressionNode--AssignmentNode</title>
      <path
         style="fill:none;stroke:#000000"
         d="m 236,-1278 c 22,-11 52,-26 78,-36 13,-5 28,-10 42,-14"
         id="path74" />
    </g>
    <!-- IfThenStatementNode -->
    <g
       id="node13"
       class="node">
      <title
         id="title77">IfThenStatementNode</title>
      <polygon
         style="fill:none;stroke:#000000"
         points="471,-1305 341,-1305 341,-1269 471,-1269 471,-1305 "
         id="polygon79" />
      <text
         x="406"
         y="-1284.5"
         style="font-size:10px;text-anchor:middle;font-family:monospace"
         id="text81">IfThenStatementNode</text>
    </g>
    <!-- NonValuedExpressionNode&#45;&#45;IfThenStatementNode -->
    <g
       id="edge12"
       class="edge">
      <title
         id="title84">NonValuedExpressionNode--IfThenStatementNode</title>
      <path
         style="fill:none;stroke:#000000"
         d="m 278,-1270 c 21,-3 43,-6 63,-8"
         id="path86" />
    </g>
    <!-- WhileStatementNode -->
    <g
       id="node15"
       class="node">
      <title
         id="title89">WhileStatementNode</title>
      <polygon
         style="fill:none;stroke:#000000"
         points="468,-1251 344,-1251 344,-1215 468,-1215 468,-1251 "
         id="polygon91" />
      <text
         x="406"
         y="-1230.5"
         style="font-size:10px;text-anchor:middle;font-family:monospace"
         id="text93">WhileStatementNode</text>
    </g>
    <!-- NonValuedExpressionNode&#45;&#45;WhileStatementNode -->
    <g
       id="edge14"
       class="edge">
      <title
         id="title96">NonValuedExpressionNode--WhileStatementNode</title>
      <path
         style="fill:none;stroke:#000000"
         d="m 278,-1250 c 22,3 45,6 66,9"
         id="path98" />
    </g>
    <!-- ForStatementNode -->
    <g
       id="node17"
       class="node">
      <title
         id="title101">ForStatementNode</title>
      <polygon
         style="fill:none;stroke:#000000"
         points="462,-1197 350,-1197 350,-1161 462,-1161 462,-1197 "
         id="polygon103" />
      <text
         x="406"
         y="-1176.5"
         style="font-size:10px;text-anchor:middle;font-family:monospace"
         id="text105">ForStatementNode</text>
    </g>
    <!-- NonValuedExpressionNode&#45;&#45;ForStatementNode -->
    <g
       id="edge16"
       class="edge">
      <title
         id="title108">NonValuedExpressionNode--ForStatementNode</title>
      <path
         style="fill:none;stroke:#000000"
         d="m 235,-1242 c 22,12 52,26 79,36 11,5 24,9 36,12"
         id="path110" />
    </g>
    <!-- BreakStatementNode -->
    <g
       id="node19"
       class="node">
      <title
         id="title113">BreakStatementNode</title>
      <polygon
         style="fill:none;stroke:#000000"
         points="468,-1143 344,-1143 344,-1107 468,-1107 468,-1143 "
         id="polygon115" />
      <text
         x="406"
         y="-1122.5"
         style="font-size:10px;text-anchor:middle;font-family:monospace"
         id="text117">BreakStatementNode</text>
    </g>
    <!-- NonValuedExpressionNode&#45;&#45;BreakStatementNode -->
    <g
       id="edge18"
       class="edge">
      <title
         id="title120">NonValuedExpressionNode--BreakStatementNode</title>
      <path
         style="fill:none;stroke:#000000"
         d="m 215,-1242 c 20,24 58,67 99,90 9,5 20,10 30,13"
         id="path122" />
    </g>
    <!-- NilExpressionNode -->
    <g
       id="node45"
       class="node">
      <title
         id="title125">NilExpressionNode</title>
      <polygon
         style="fill:none;stroke:#000000"
         points="465,-1089 347,-1089 347,-1053 465,-1053 465,-1089 "
         id="polygon127" />
      <text
         x="406"
         y="-1068.5"
         style="font-size:10px;text-anchor:middle;font-family:monospace"
         id="text129">NilExpressionNode</text>
    </g>
    <!-- ValuedExpressionNode&#45;&#45;NilExpressionNode -->
    <g
       id="edge44"
       class="edge">
      <title
         id="title132">ValuedExpressionNode--NilExpressionNode</title>
      <path
         style="fill:none;stroke:#000000"
         d="m 205,-846 c 11,-42 44,-144 109,-198 9,-8 21,-13 33,-17"
         id="path134" />
    </g>
    <!-- IntegerLiteralExpressionNode -->
    <g
       id="node47"
       class="node">
      <title
         id="title137">IntegerLiteralExpressionNode</title>
      <polygon
         style="fill:none;stroke:#000000"
         points="498,-1035 314,-1035 314,-999 498,-999 498,-1035 "
         id="polygon139" />
      <text
         x="406"
         y="-1014.5"
         style="font-size:10px;text-anchor:middle;font-family:monospace"
         id="text141">IntegerLiteralExpressionNode</text>
    </g>
    <!-- ValuedExpressionNode&#45;&#45;IntegerLiteralExpressionNode -->
    <g
       id="edge46"
       class="edge">
      <title
         id="title144">ValuedExpressionNode--IntegerLiteralExpressionNode</title>
      <path
         style="fill:none;stroke:#000000"
         d="m 209,-846 c 15,-33 52,-105 105,-144 5,-3 10,-6 16,-9"
         id="path146" />
    </g>
    <!-- StringLiteralExpressionNode -->
    <g
       id="node49"
       class="node">
      <title
         id="title149">StringLiteralExpressionNode</title>
      <polygon
         style="fill:none;stroke:#000000"
         points="495,-981 317,-981 317,-945 495,-945 495,-981 "
         id="polygon151" />
      <text
         x="406"
         y="-960.5"
         style="font-size:10px;text-anchor:middle;font-family:monospace"
         id="text153">StringLiteralExpressionNode</text>
    </g>
    <!-- ValuedExpressionNode&#45;&#45;StringLiteralExpressionNode -->
    <g
       id="edge48"
       class="edge">
      <title
         id="title156">ValuedExpressionNode--StringLiteralExpressionNode</title>
      <path
         style="fill:none;stroke:#000000"
         d="m 215,-846 c 20,-24 58,-66 99,-90 6,-3 12,-6 19,-9"
         id="path158" />
    </g>
    <!-- ArrayLiteralExpressionNode -->
    <g
       id="node51"
       class="node">
      <title
         id="title161">ArrayLiteralExpressionNode</title>
      <polygon
         style="fill:none;stroke:#000000"
         points="492,-927 320,-927 320,-891 492,-891 492,-927 "
         id="polygon163" />
      <text
         x="406"
         y="-906.5"
         style="font-size:10px;text-anchor:middle;font-family:monospace"
         id="text165">ArrayLiteralExpressionNode</text>
    </g>
    <!-- ValuedExpressionNode&#45;&#45;ArrayLiteralExpressionNode -->
    <g
       id="edge50"
       class="edge">
      <title
         id="title168">ValuedExpressionNode--ArrayLiteralExpressionNode</title>
      <path
         style="fill:none;stroke:#000000"
         d="m 236,-846 c 22,-11 52,-26 78,-36 8,-3 17,-6 26,-9"
         id="path170" />
    </g>
    <!-- RecordLiteralExpressionNode -->
    <g
       id="node53"
       class="node">
      <title
         id="title173">RecordLiteralExpressionNode</title>
      <polygon
         style="fill:none;stroke:#000000"
         points="495,-873 317,-873 317,-837 495,-837 495,-873 "
         id="polygon175" />
      <text
         x="406"
         y="-852.5"
         style="font-size:10px;text-anchor:middle;font-family:monospace"
         id="text177">RecordLiteralExpressionNode</text>
    </g>
    <!-- ValuedExpressionNode&#45;&#45;RecordLiteralExpressionNode -->
    <g
       id="edge52"
       class="edge">
      <title
         id="title180">ValuedExpressionNode--RecordLiteralExpressionNode</title>
      <path
         style="fill:none;stroke:#000000"
         d="m 269,-837 c 15,-2 32,-4 48,-6"
         id="path182" />
    </g>
    <!-- IfThenElseStatementNode -->
    <g
       id="node55"
       class="node">
      <title
         id="title185">IfThenElseStatementNode</title>
      <polygon
         style="fill:none;stroke:#000000"
         points="483,-819 329,-819 329,-783 483,-783 483,-819 "
         id="polygon187" />
      <text
         x="406"
         y="-798.5"
         style="font-size:10px;text-anchor:middle;font-family:monospace"
         id="text189">IfThenElseStatementNode</text>
    </g>
    <!-- ValuedExpressionNode&#45;&#45;IfThenElseStatementNode -->
    <g
       id="edge54"
       class="edge">
      <title
         id="title192">ValuedExpressionNode--IfThenElseStatementNode</title>
      <path
         style="fill:none;stroke:#000000"
         d="m 269,-819 c 19,3 40,5 60,8"
         id="path194" />
    </g>
    <!-- FunctionCallNode -->
    <g
       id="node57"
       class="node">
      <title
         id="title197">FunctionCallNode</title>
      <polygon
         style="fill:none;stroke:#000000"
         points="462,-765 350,-765 350,-729 462,-729 462,-765 "
         id="polygon199" />
      <text
         x="406"
         y="-744.5"
         style="font-size:10px;text-anchor:middle;font-family:monospace"
         id="text201">FunctionCallNode</text>
    </g>
    <!-- ValuedExpressionNode&#45;&#45;FunctionCallNode -->
    <g
       id="edge56"
       class="edge">
      <title
         id="title204">ValuedExpressionNode--FunctionCallNode</title>
      <path
         style="fill:none;stroke:#000000"
         d="m 235,-810 c 22,12 52,26 79,36 11,5 24,9 36,12"
         id="path206" />
    </g>
    <!-- LetNode -->
    <g
       id="node59"
       class="node">
      <title
         id="title209">LetNode</title>
      <polygon
         style="fill:none;stroke:#000000"
         points="435,-711 377,-711 377,-675 435,-675 435,-711 "
         id="polygon211" />
      <text
         x="406"
         y="-690.5"
         style="font-size:10px;text-anchor:middle;font-family:monospace"
         id="text213">LetNode</text>
    </g>
    <!-- ValuedExpressionNode&#45;&#45;LetNode -->
    <g
       id="edge58"
       class="edge">
      <title
         id="title216">ValuedExpressionNode--LetNode</title>
      <path
         style="fill:none;stroke:#000000"
         d="m 215,-810 c 20,24 58,67 99,90 20,12 44,18 63,22"
         id="path218" />
    </g>
    <!-- ExpressionSequenceNode -->
    <g
       id="node61"
       class="node">
      <title
         id="title221">ExpressionSequenceNode</title>
      <polygon
         style="fill:none;stroke:#000000"
         points="480,-657 332,-657 332,-621 480,-621 480,-657 "
         id="polygon223" />
      <text
         x="406"
         y="-636.5"
         style="font-size:10px;text-anchor:middle;font-family:monospace"
         id="text225">ExpressionSequenceNode</text>
    </g>
    <!-- ValuedExpressionNode&#45;&#45;ExpressionSequenceNode -->
    <g
       id="edge60"
       class="edge">
      <title
         id="title228">ValuedExpressionNode--ExpressionSequenceNode</title>
      <path
         style="fill:none;stroke:#000000"
         d="m 209,-810 c 15,34 52,106 105,144 5,4 11,7 18,10"
         id="path230" />
    </g>
    <!-- AccessNode -->
    <g
       id="node63"
       class="node">
      <title
         id="title233">AccessNode</title>
      <polygon
         style="fill:none;stroke:#000000"
         points="444,-603 368,-603 368,-567 444,-567 444,-603 "
         id="polygon235" />
      <text
         x="406"
         y="-582.5"
         style="font-size:10px;text-anchor:middle;font-family:monospace"
         id="text237">AccessNode</text>
    </g>
    <!-- ValuedExpressionNode&#45;&#45;AccessNode -->
    <g
       id="edge62"
       class="edge">
      <title
         id="title240">ValuedExpressionNode--AccessNode</title>
      <path
         style="fill:none;stroke:#000000"
         d="m 205,-810 c 11,42 44,145 109,198 15,13 36,20 54,23"
         id="path242" />
    </g>
    <!-- OperatorNode -->
    <g
       id="node65"
       class="node">
      <title
         id="title245">OperatorNode</title>
      <polygon
         style="fill:none;stroke:#000000"
         points="450,-522 362,-522 362,-486 450,-486 450,-522 "
         id="polygon247" />
      <text
         x="406"
         y="-501.5"
         style="font-size:10px;text-anchor:middle;font-family:monospace"
         id="text249">OperatorNode</text>
    </g>
    <!-- ValuedExpressionNode&#45;&#45;OperatorNode -->
    <g
       id="edge64"
       class="edge">
      <title
         id="title252">ValuedExpressionNode--OperatorNode</title>
      <path
         style="fill:none;stroke:#000000"
         d="m 204,-810 c 10,47 42,174 110,252 13,15 32,27 49,36"
         id="path254" />
    </g>
    <!-- CallableDeclarationNode -->
    <g
       id="node21"
       class="node">
      <title
         id="title257">CallableDeclarationNode</title>
      <polygon
         style="fill:none;stroke:#000000"
         points="703,-1629 549,-1629 549,-1593 703,-1593 703,-1629 "
         id="polygon259" />
      <text
         x="626"
         y="-1608.5"
         style="font-size:10px;text-anchor:middle;font-family:monospace"
         id="text261">CallableDeclarationNode</text>
    </g>
    <!-- DeclarationNode&#45;&#45;CallableDeclarationNode -->
    <g
       id="edge20"
       class="edge">
      <title
         id="title264">DeclarationNode--CallableDeclarationNode</title>
      <path
         style="fill:none;stroke:#000000"
         d="m 436,-1494 c 42,-26 119,-73 161,-99"
         id="path266" />
    </g>
    <!-- VariableDeclarationNode -->
    <g
       id="node23"
       class="node">
      <title
         id="title269">VariableDeclarationNode</title>
      <polygon
         style="fill:none;stroke:#000000"
         points="703,-1521 549,-1521 549,-1485 703,-1485 703,-1521 "
         id="polygon271" />
      <text
         x="626"
         y="-1500.5"
         style="font-size:10px;text-anchor:middle;font-family:monospace"
         id="text273">VariableDeclarationNode</text>
    </g>
    <!-- DeclarationNode&#45;&#45;VariableDeclarationNode -->
    <g
       id="edge22"
       class="edge">
      <title
         id="title276">DeclarationNode--VariableDeclarationNode</title>
      <path
         style="fill:none;stroke:#000000"
         d="m 459,-1483 c 27,-3 60,-7 90,-11"
         id="path278" />
    </g>
    <!-- TypeDeclarationNode -->
    <g
       id="node25"
       class="node">
      <title
         id="title281">TypeDeclarationNode</title>
      <polygon
         style="fill:none;stroke:#000000"
         points="691,-1467 561,-1467 561,-1431 691,-1431 691,-1467 "
         id="polygon283" />
      <text
         x="626"
         y="-1446.5"
         style="font-size:10px;text-anchor:middle;font-family:monospace"
         id="text285">TypeDeclarationNode</text>
    </g>
    <!-- DeclarationNode&#45;&#45;TypeDeclarationNode -->
    <g
       id="edge24"
       class="edge">
      <title
         id="title288">DeclarationNode--TypeDeclarationNode</title>
      <path
         style="fill:none;stroke:#000000"
         d="m 459,-1469 c 31,4 69,8 102,12"
         id="path290" />
    </g>
    <!-- TypeDeclarationGroupNode -->
    <g
       id="node27"
       class="node">
      <title
         id="title293">TypeDeclarationGroupNode</title>
      <polygon
         style="fill:none;stroke:#000000"
         points="706,-1413 546,-1413 546,-1377 706,-1377 706,-1413 "
         id="polygon295" />
      <text
         x="626"
         y="-1392.5"
         style="font-size:10px;text-anchor:middle;font-family:monospace"
         id="text297">TypeDeclarationGroupNode</text>
    </g>
    <!-- DeclarationGroupNode&#45;&#45;TypeDeclarationGroupNode -->
    <g
       id="edge26"
       class="edge">
      <title
         id="title300">DeclarationGroupNode--TypeDeclarationGroupNode</title>
      <path
         style="fill:none;stroke:#000000"
         d="m 474,-1395 c 23,0 48,0 72,0"
         id="path302" />
    </g>
    <!-- FunctionDeclarationGroupNode -->
    <g
       id="node29"
       class="node">
      <title
         id="title305">FunctionDeclarationGroupNode</title>
      <polygon
         style="fill:none;stroke:#000000"
         points="718,-1359 534,-1359 534,-1323 718,-1323 718,-1359 "
         id="polygon307" />
      <text
         x="626"
         y="-1338.5"
         style="font-size:10px;text-anchor:middle;font-family:monospace"
         id="text309">FunctionDeclarationGroupNode</text>
    </g>
    <!-- DeclarationGroupNode&#45;&#45;FunctionDeclarationGroupNode -->
    <g
       id="edge28"
       class="edge">
      <title
         id="title312">DeclarationGroupNode--FunctionDeclarationGroupNode</title>
      <path
         style="fill:none;stroke:#000000"
         d="m 474,-1378 c 25,6 52,13 77,19"
         id="path314" />
    </g>
    <!-- FunctionDeclarationNode -->
    <g
       id="node31"
       class="node">
      <title
         id="title317">FunctionDeclarationNode</title>
      <polygon
         style="fill:none;stroke:#000000"
         points="932,-1683 778,-1683 778,-1647 932,-1647 932,-1683 "
         id="polygon319" />
      <text
         x="855"
         y="-1662.5"
         style="font-size:10px;text-anchor:middle;font-family:monospace"
         id="text321">FunctionDeclarationNode</text>
    </g>
    <!-- CallableDeclarationNode&#45;&#45;FunctionDeclarationNode -->
    <g
       id="edge30"
       class="edge">
      <title
         id="title324">CallableDeclarationNode--FunctionDeclarationNode</title>
      <path
         style="fill:none;stroke:#000000"
         d="m 703,-1629 c 24,-6 51,-12 75,-18"
         id="path326" />
    </g>
    <!-- ProcedureDeclarationNode -->
    <g
       id="node33"
       class="node">
      <title
         id="title329">ProcedureDeclarationNode</title>
      <polygon
         style="fill:none;stroke:#000000"
         points="935,-1629 775,-1629 775,-1593 935,-1593 935,-1629 "
         id="polygon331" />
      <text
         x="855"
         y="-1608.5"
         style="font-size:10px;text-anchor:middle;font-family:monospace"
         id="text333">ProcedureDeclarationNode</text>
    </g>
    <!-- CallableDeclarationNode&#45;&#45;ProcedureDeclarationNode -->
    <g
       id="edge32"
       class="edge">
      <title
         id="title336">CallableDeclarationNode--ProcedureDeclarationNode</title>
      <path
         style="fill:none;stroke:#000000"
         d="m 703,-1611 c 23,0 48,0 72,0"
         id="path338" />
    </g>
    <!-- InferredVariableDeclarationNode -->
    <g
       id="node35"
       class="node">
      <title
         id="title341">InferredVariableDeclarationNode</title>
      <polygon
         style="fill:none;stroke:#000000"
         points="956,-1575 754,-1575 754,-1539 956,-1539 956,-1575 "
         id="polygon343" />
      <text
         x="855"
         y="-1554.5"
         style="font-size:10px;text-anchor:middle;font-family:monospace"
         id="text345">InferredVariableDeclarationNode</text>
    </g>
    <!-- VariableDeclarationNode&#45;&#45;InferredVariableDeclarationNode -->
    <g
       id="edge34"
       class="edge">
      <title
         id="title348">VariableDeclarationNode--InferredVariableDeclarationNode</title>
      <path
         style="fill:none;stroke:#000000"
         d="m 703,-1521 c 24,-6 51,-12 75,-18"
         id="path350" />
    </g>
    <!-- StaticVariableDeclarationNode -->
    <g
       id="node37"
       class="node">
      <title
         id="title353">StaticVariableDeclarationNode</title>
      <polygon
         style="fill:none;stroke:#000000"
         points="950,-1521 760,-1521 760,-1485 950,-1485 950,-1521 "
         id="polygon355" />
      <text
         x="855"
         y="-1500.5"
         style="font-size:10px;text-anchor:middle;font-family:monospace"
         id="text357">StaticVariableDeclarationNode</text>
    </g>
    <!-- VariableDeclarationNode&#45;&#45;StaticVariableDeclarationNode -->
    <g
       id="edge36"
       class="edge">
      <title
         id="title360">VariableDeclarationNode--StaticVariableDeclarationNode</title>
      <path
         style="fill:none;stroke:#000000"
         d="m 703,-1503 c 18,0 38,0 57,0"
         id="path362" />
    </g>
    <!-- AliasTypeDeclarationNode -->
    <g
       id="node39"
       class="node">
      <title
         id="title365">AliasTypeDeclarationNode</title>
      <polygon
         style="fill:none;stroke:#000000"
         points="935,-1467 775,-1467 775,-1431 935,-1431 935,-1467 "
         id="polygon367" />
      <text
         x="855"
         y="-1446.5"
         style="font-size:10px;text-anchor:middle;font-family:monospace"
         id="text369">AliasTypeDeclarationNode</text>
    </g>
    <!-- TypeDeclarationNode&#45;&#45;AliasTypeDeclarationNode -->
    <g
       id="edge38"
       class="edge">
      <title
         id="title372">TypeDeclarationNode--AliasTypeDeclarationNode</title>
      <path
         style="fill:none;stroke:#000000"
         d="m 691,-1449 c 26,0 56,0 84,0"
         id="path374" />
    </g>
    <!-- RecordDeclarationNode -->
    <g
       id="node41"
       class="node">
      <title
         id="title377">RecordDeclarationNode</title>
      <polygon
         style="fill:none;stroke:#000000"
         points="926,-1413 784,-1413 784,-1377 926,-1377 926,-1413 "
         id="polygon379" />
      <text
         x="855"
         y="-1392.5"
         style="font-size:10px;text-anchor:middle;font-family:monospace"
         id="text381">RecordDeclarationNode</text>
    </g>
    <!-- TypeDeclarationNode&#45;&#45;RecordDeclarationNode -->
    <g
       id="edge40"
       class="edge">
      <title
         id="title384">TypeDeclarationNode--RecordDeclarationNode</title>
      <path
         style="fill:none;stroke:#000000"
         d="m 691,-1434 c 29,7 63,15 93,22"
         id="path386" />
    </g>
    <!-- ArrayDeclarationNode -->
    <g
       id="node43"
       class="node">
      <title
         id="title389">ArrayDeclarationNode</title>
      <polygon
         style="fill:none;stroke:#000000"
         points="923,-1359 787,-1359 787,-1323 923,-1323 923,-1359 "
         id="polygon391" />
      <text
         x="855"
         y="-1338.5"
         style="font-size:10px;text-anchor:middle;font-family:monospace"
         id="text393">ArrayDeclarationNode</text>
    </g>
    <!-- TypeDeclarationNode&#45;&#45;ArrayDeclarationNode -->
    <g
       id="edge42"
       class="edge">
      <title
         id="title396">TypeDeclarationNode--ArrayDeclarationNode</title>
      <path
         style="fill:none;stroke:#000000"
         d="m 691,-1436 c 10,4 19,8 27,14 24,18 13,38 36,54 10,7 21,13 33,16"
         id="path398" />
    </g>
    <!-- VariableAccessNode -->
    <g
       id="node67"
       class="node">
      <title
         id="title401">VariableAccessNode</title>
      <polygon
         style="fill:none;stroke:#000000"
         points="688,-684 564,-684 564,-648 688,-648 688,-684 "
         id="polygon403" />
      <text
         x="626"
         y="-663.5"
         style="font-size:10px;text-anchor:middle;font-family:monospace"
         id="text405">VariableAccessNode</text>
    </g>
    <!-- AccessNode&#45;&#45;VariableAccessNode -->
    <g
       id="edge66"
       class="edge">
      <title
         id="title408">AccessNode--VariableAccessNode</title>
      <path
         style="fill:none;stroke:#000000"
         d="m 444,-593 c 17,-4 37,-10 54,-19 18,-8 19,-18 36,-27 9,-5 20,-9 30,-12"
         id="path410" />
    </g>
    <!-- RecordAccessNode -->
    <g
       id="node69"
       class="node">
      <title
         id="title413">RecordAccessNode</title>
      <polygon
         style="fill:none;stroke:#000000"
         points="682,-630 570,-630 570,-594 682,-594 682,-630 "
         id="polygon415" />
      <text
         x="626"
         y="-609.5"
         style="font-size:10px;text-anchor:middle;font-family:monospace"
         id="text417">RecordAccessNode</text>
    </g>
    <!-- AccessNode&#45;&#45;RecordAccessNode -->
    <g
       id="edge68"
       class="edge">
      <title
         id="title420">AccessNode--RecordAccessNode</title>
      <path
         style="fill:none;stroke:#000000"
         d="m 444,-590 c 35,-4 86,-10 126,-15"
         id="path422" />
    </g>
    <!-- ArrayAccessNode -->
    <g
       id="node71"
       class="node">
      <title
         id="title425">ArrayAccessNode</title>
      <polygon
         style="fill:none;stroke:#000000"
         points="679,-576 573,-576 573,-540 679,-540 679,-576 "
         id="polygon427" />
      <text
         x="626"
         y="-555.5"
         style="font-size:10px;text-anchor:middle;font-family:monospace"
         id="text429">ArrayAccessNode</text>
    </g>
    <!-- AccessNode&#45;&#45;ArrayAccessNode -->
    <g
       id="edge70"
       class="edge">
      <title
         id="title432">AccessNode--ArrayAccessNode</title>
      <path
         style="fill:none;stroke:#000000"
         d="m 444,-580 c 36,4 89,10 129,15"
         id="path434" />
    </g>
    <!-- UnaryOperatorNode -->
    <g
       id="node73"
       class="node">
      <title
         id="title437">UnaryOperatorNode</title>
      <polygon
         style="fill:none;stroke:#000000"
         points="685,-522 567,-522 567,-486 685,-486 685,-522 "
         id="polygon439" />
      <text
         x="626"
         y="-501.5"
         style="font-size:10px;text-anchor:middle;font-family:monospace"
         id="text441">UnaryOperatorNode</text>
    </g>
    <!-- OperatorNode&#45;&#45;UnaryOperatorNode -->
    <g
       id="edge72"
       class="edge">
      <title
         id="title444">OperatorNode--UnaryOperatorNode</title>
      <path
         style="fill:none;stroke:#000000"
         d="m 450,-504 c 33,0 80,0 117,0"
         id="path446" />
    </g>
    <!-- BinaryOperatorNode -->
    <g
       id="node75"
       class="node">
      <title
         id="title449">BinaryOperatorNode</title>
      <polygon
         style="fill:none;stroke:#000000"
         points="688,-468 564,-468 564,-432 688,-432 688,-468 "
         id="polygon451" />
      <text
         x="626"
         y="-447.5"
         style="font-size:10px;text-anchor:middle;font-family:monospace"
         id="text453">BinaryOperatorNode</text>
    </g>
    <!-- OperatorNode&#45;&#45;BinaryOperatorNode -->
    <g
       id="edge74"
       class="edge">
      <title
         id="title456">OperatorNode--BinaryOperatorNode</title>
      <path
         style="fill:none;stroke:#000000"
         d="m 450,-493 c 32,8 77,19 114,28"
         id="path458" />
    </g>
    <!-- UnaryMinusOperatorNode -->
    <g
       id="node81"
       class="node">
      <title
         id="title461">UnaryMinusOperatorNode</title>
      <polygon
         style="fill:none;stroke:#000000"
         points="929,-522 781,-522 781,-486 929,-486 929,-522 "
         id="polygon463" />
      <text
         x="855"
         y="-501.5"
         style="font-size:10px;text-anchor:middle;font-family:monospace"
         id="text465">UnaryMinusOperatorNode</text>
    </g>
    <!-- UnaryOperatorNode&#45;&#45;UnaryMinusOperatorNode -->
    <g
       id="edge80"
       class="edge">
      <title
         id="title468">UnaryOperatorNode--UnaryMinusOperatorNode</title>
      <path
         style="fill:none;stroke:#000000"
         d="m 685,-504 c 29,0 65,0 96,0"
         id="path470" />
    </g>
    <!-- ArithmeticOperatorNode -->
    <g
       id="node77"
       class="node">
      <title
         id="title473">ArithmeticOperatorNode</title>
      <polygon
         style="fill:none;stroke:#000000"
         points="929,-468 781,-468 781,-432 929,-432 929,-468 "
         id="polygon475" />
      <text
         x="855"
         y="-447.5"
         style="font-size:10px;text-anchor:middle;font-family:monospace"
         id="text477">ArithmeticOperatorNode</text>
    </g>
    <!-- BinaryOperatorNode&#45;&#45;ArithmeticOperatorNode -->
    <g
       id="edge76"
       class="edge">
      <title
         id="title480">BinaryOperatorNode--ArithmeticOperatorNode</title>
      <path
         style="fill:none;stroke:#000000"
         d="m 688,-450 c 29,0 63,0 93,0"
         id="path482" />
    </g>
    <!-- LogicalOperatorNode -->
    <g
       id="node79"
       class="node">
      <title
         id="title485">LogicalOperatorNode</title>
      <polygon
         style="fill:none;stroke:#000000"
         points="920,-333 790,-333 790,-297 920,-297 920,-333 "
         id="polygon487" />
      <text
         x="855"
         y="-312.5"
         style="font-size:10px;text-anchor:middle;font-family:monospace"
         id="text489">LogicalOperatorNode</text>
    </g>
    <!-- BinaryOperatorNode&#45;&#45;LogicalOperatorNode -->
    <g
       id="edge78"
       class="edge">
      <title
         id="title492">BinaryOperatorNode--LogicalOperatorNode</title>
      <path
         style="fill:none;stroke:#000000"
         d="m 657,-432 c 43,26 123,73 167,99"
         id="path494" />
    </g>
    <!-- PlusOperatorNode -->
    <g
       id="node83"
       class="node">
      <title
         id="title497">PlusOperatorNode</title>
      <polygon
         style="fill:none;stroke:#000000"
         points="1143,-576 1031,-576 1031,-540 1143,-540 1143,-576 "
         id="polygon499" />
      <text
         x="1087"
         y="-555.5"
         style="font-size:10px;text-anchor:middle;font-family:monospace"
         id="text501">PlusOperatorNode</text>
    </g>
    <!-- ArithmeticOperatorNode&#45;&#45;PlusOperatorNode -->
    <g
       id="edge82"
       class="edge">
      <title
         id="title504">ArithmeticOperatorNode--PlusOperatorNode</title>
      <path
         style="fill:none;stroke:#000000"
         d="m 929,-463 c 10,-3 19,-8 27,-14 24,-16 13,-37 36,-54 12,-8 25,-14 39,-18"
         id="path506" />
    </g>
    <!-- MinusOperatorNode -->
    <g
       id="node85"
       class="node">
      <title
         id="title509">MinusOperatorNode</title>
      <polygon
         style="fill:none;stroke:#000000"
         points="1146,-522 1028,-522 1028,-486 1146,-486 1146,-522 "
         id="polygon511" />
      <text
         x="1087"
         y="-501.5"
         style="font-size:10px;text-anchor:middle;font-family:monospace"
         id="text513">MinusOperatorNode</text>
    </g>
    <!-- ArithmeticOperatorNode&#45;&#45;MinusOperatorNode -->
    <g
       id="edge84"
       class="edge">
      <title
         id="title516">ArithmeticOperatorNode--MinusOperatorNode</title>
      <path
         style="fill:none;stroke:#000000"
         d="m 929,-467 c 32,-8 69,-16 99,-23"
         id="path518" />
    </g>
    <!-- TimesOperatorNode -->
    <g
       id="node87"
       class="node">
      <title
         id="title521">TimesOperatorNode</title>
      <polygon
         style="fill:none;stroke:#000000"
         points="1146,-468 1028,-468 1028,-432 1146,-432 1146,-468 "
         id="polygon523" />
      <text
         x="1087"
         y="-447.5"
         style="font-size:10px;text-anchor:middle;font-family:monospace"
         id="text525">TimesOperatorNode</text>
    </g>
    <!-- ArithmeticOperatorNode&#45;&#45;TimesOperatorNode -->
    <g
       id="edge86"
       class="edge">
      <title
         id="title528">ArithmeticOperatorNode--TimesOperatorNode</title>
      <path
         style="fill:none;stroke:#000000"
         d="m 929,-450 c 32,0 69,0 99,0"
         id="path530" />
    </g>
    <!-- DivideOperatorNode -->
    <g
       id="node89"
       class="node">
      <title
         id="title533">DivideOperatorNode</title>
      <polygon
         style="fill:none;stroke:#000000"
         points="1149,-414 1025,-414 1025,-378 1149,-378 1149,-414 "
         id="polygon535" />
      <text
         x="1087"
         y="-393.5"
         style="font-size:10px;text-anchor:middle;font-family:monospace"
         id="text537">DivideOperatorNode</text>
    </g>
    <!-- ArithmeticOperatorNode&#45;&#45;DivideOperatorNode -->
    <g
       id="edge88"
       class="edge">
      <title
         id="title540">ArithmeticOperatorNode--DivideOperatorNode</title>
      <path
         style="fill:none;stroke:#000000"
         d="m 929,-433 c 31,7 66,16 96,22"
         id="path542" />
    </g>
    <!-- BinaryLogicalOperatorNode -->
    <g
       id="node91"
       class="node">
      <title
         id="title545">BinaryLogicalOperatorNode</title>
      <polygon
         style="fill:none;stroke:#000000"
         points="1170,-360 1004,-360 1004,-324 1170,-324 1170,-360 "
         id="polygon547" />
      <text
         x="1087"
         y="-339.5"
         style="font-size:10px;text-anchor:middle;font-family:monospace"
         id="text549">BinaryLogicalOperatorNode</text>
    </g>
    <!-- LogicalOperatorNode&#45;&#45;BinaryLogicalOperatorNode -->
    <g
       id="edge90"
       class="edge">
      <title
         id="title552">LogicalOperatorNode--BinaryLogicalOperatorNode</title>
      <path
         style="fill:none;stroke:#000000"
         d="m 920,-323 c 26,-3 56,-6 84,-10"
         id="path554" />
    </g>
    <!-- EqualityLogicalOperatorNode -->
    <g
       id="node93"
       class="node">
      <title
         id="title557">EqualityLogicalOperatorNode</title>
      <polygon
         style="fill:none;stroke:#000000"
         points="1176,-306 998,-306 998,-270 1176,-270 1176,-306 "
         id="polygon559" />
      <text
         x="1087"
         y="-285.5"
         style="font-size:10px;text-anchor:middle;font-family:monospace"
         id="text561">EqualityLogicalOperatorNode</text>
    </g>
    <!-- LogicalOperatorNode&#45;&#45;EqualityLogicalOperatorNode -->
    <g
       id="edge92"
       class="edge">
      <title
         id="title564">LogicalOperatorNode--EqualityLogicalOperatorNode</title>
      <path
         style="fill:none;stroke:#000000"
         d="m 920,-307 c 24,3 52,6 78,9"
         id="path566" />
    </g>
    <!-- RelationalLogicalOperatorNode -->
    <g
       id="node95"
       class="node">
      <title
         id="title569">RelationalLogicalOperatorNode</title>
      <polygon
         style="fill:none;stroke:#000000"
         points="1182,-144 992,-144 992,-108 1182,-108 1182,-144 "
         id="polygon571" />
      <text
         x="1087"
         y="-123.5"
         style="font-size:10px;text-anchor:middle;font-family:monospace"
         id="text573">RelationalLogicalOperatorNode</text>
    </g>
    <!-- LogicalOperatorNode&#45;&#45;RelationalLogicalOperatorNode -->
    <g
       id="edge94"
       class="edge">
      <title
         id="title576">LogicalOperatorNode--RelationalLogicalOperatorNode</title>
      <path
         style="fill:none;stroke:#000000"
         d="m 877,-297 c 44,36 143,117 188,153"
         id="path578" />
    </g>
    <!-- AndOperatorNode -->
    <g
       id="node97"
       class="node">
      <title
         id="title581">AndOperatorNode</title>
      <polygon
         style="fill:none;stroke:#000000"
         points="1366,-414 1260,-414 1260,-378 1366,-378 1366,-414 "
         id="polygon583" />
      <text
         x="1313"
         y="-393.5"
         style="font-size:10px;text-anchor:middle;font-family:monospace"
         id="text585">AndOperatorNode</text>
    </g>
    <!-- BinaryLogicalOperatorNode&#45;&#45;AndOperatorNode -->
    <g
       id="edge96"
       class="edge">
      <title
         id="title588">BinaryLogicalOperatorNode--AndOperatorNode</title>
      <path
         style="fill:none;stroke:#000000"
         d="m 1163,-360 c 32,-8 68,-17 97,-23"
         id="path590" />
    </g>
    <!-- OrOperatorNode -->
    <g
       id="node99"
       class="node">
      <title
         id="title593">OrOperatorNode</title>
      <polygon
         style="fill:none;stroke:#000000"
         points="1363,-360 1263,-360 1263,-324 1363,-324 1363,-360 "
         id="polygon595" />
      <text
         x="1313"
         y="-339.5"
         style="font-size:10px;text-anchor:middle;font-family:monospace"
         id="text597">OrOperatorNode</text>
    </g>
    <!-- BinaryLogicalOperatorNode&#45;&#45;OrOperatorNode -->
    <g
       id="edge98"
       class="edge">
      <title
         id="title600">BinaryLogicalOperatorNode--OrOperatorNode</title>
      <path
         style="fill:none;stroke:#000000"
         d="m 1170,-342 c 31,0 66,0 93,0"
         id="path602" />
    </g>
    <!-- EqualsOperatorNode -->
    <g
       id="node101"
       class="node">
      <title
         id="title605">EqualsOperatorNode</title>
      <polygon
         style="fill:none;stroke:#000000"
         points="1375,-306 1251,-306 1251,-270 1375,-270 1375,-306 "
         id="polygon607" />
      <text
         x="1313"
         y="-285.5"
         style="font-size:10px;text-anchor:middle;font-family:monospace"
         id="text609">EqualsOperatorNode</text>
    </g>
    <!-- EqualityLogicalOperatorNode&#45;&#45;EqualsOperatorNode -->
    <g
       id="edge100"
       class="edge">
      <title
         id="title612">EqualityLogicalOperatorNode--EqualsOperatorNode</title>
      <path
         style="fill:none;stroke:#000000"
         d="m 1176,-288 c 25,0 52,0 75,0"
         id="path614" />
    </g>
    <!-- NotEqualsOperatorNode -->
    <g
       id="node103"
       class="node">
      <title
         id="title617">NotEqualsOperatorNode</title>
      <polygon
         style="fill:none;stroke:#000000"
         points="1384,-252 1242,-252 1242,-216 1384,-216 1384,-252 "
         id="polygon619" />
      <text
         x="1313"
         y="-231.5"
         style="font-size:10px;text-anchor:middle;font-family:monospace"
         id="text621">NotEqualsOperatorNode</text>
    </g>
    <!-- EqualityLogicalOperatorNode&#45;&#45;NotEqualsOperatorNode -->
    <g
       id="edge102"
       class="edge">
      <title
         id="title624">EqualityLogicalOperatorNode--NotEqualsOperatorNode</title>
      <path
         style="fill:none;stroke:#000000"
         d="m 1163,-270 c 25,6 54,13 79,19"
         id="path626" />
    </g>
    <!-- LessThanOperatorNode -->
    <g
       id="node105"
       class="node">
      <title
         id="title629">LessThanOperatorNode</title>
      <polygon
         style="fill:none;stroke:#000000"
         points="1381,-198 1245,-198 1245,-162 1381,-162 1381,-198 "
         id="polygon631" />
      <text
         x="1313"
         y="-177.5"
         style="font-size:10px;text-anchor:middle;font-family:monospace"
         id="text633">LessThanOperatorNode</text>
    </g>
    <!-- RelationalLogicalOperatorNode&#45;&#45;LessThanOperatorNode -->
    <g
       id="edge104"
       class="edge">
      <title
         id="title636">RelationalLogicalOperatorNode--LessThanOperatorNode</title>
      <path
         style="fill:none;stroke:#000000"
         d="m 1163,-144 c 26,-6 56,-14 82,-20"
         id="path638" />
    </g>
    <!-- LessEqualsThanOperatorNode -->
    <g
       id="node107"
       class="node">
      <title
         id="title641">LessEqualsThanOperatorNode</title>
      <polygon
         style="fill:none;stroke:#000000"
         points="1399,-144 1227,-144 1227,-108 1399,-108 1399,-144 "
         id="polygon643" />
      <text
         x="1313"
         y="-123.5"
         style="font-size:10px;text-anchor:middle;font-family:monospace"
         id="text645">LessEqualsThanOperatorNode</text>
    </g>
    <!-- RelationalLogicalOperatorNode&#45;&#45;LessEqualsThanOperatorNode -->
    <g
       id="edge106"
       class="edge">
      <title
         id="title648">RelationalLogicalOperatorNode--LessEqualsThanOperatorNode</title>
      <path
         style="fill:none;stroke:#000000"
         d="m 1182,-126 c 15,0 30,0 45,0"
         id="path650" />
    </g>
    <!-- GreaterThanOperatorNode -->
    <g
       id="node109"
       class="node">
      <title
         id="title653">GreaterThanOperatorNode</title>
      <polygon
         style="fill:none;stroke:#000000"
         points="1390,-90 1236,-90 1236,-54 1390,-54 1390,-90 "
         id="polygon655" />
      <text
         x="1313"
         y="-69.5"
         style="font-size:10px;text-anchor:middle;font-family:monospace"
         id="text657">GreaterThanOperatorNode</text>
    </g>
    <!-- RelationalLogicalOperatorNode&#45;&#45;GreaterThanOperatorNode -->
    <g
       id="edge108"
       class="edge">
      <title
         id="title660">RelationalLogicalOperatorNode--GreaterThanOperatorNode</title>
      <path
         style="fill:none;stroke:#000000"
         d="m 1163,-108 c 24,6 50,12 74,18"
         id="path662" />
    </g>
    <!-- GreaterEqualsThanOperatorNode -->
    <g
       id="node111"
       class="node">
      <title
         id="title665">GreaterEqualsThanOperatorNode</title>
      <polygon
         style="fill:none;stroke:#000000"
         points="1408,-36 1218,-36 1218,-1.06581e-14 1408,0 1408,-36 "
         id="polygon667" />
      <text
         x="1313"
         y="-15.5"
         style="font-size:10px;text-anchor:middle;font-family:monospace"
         id="text669">GreaterEqualsThanOperatorNode</text>
    </g>
    <!-- RelationalLogicalOperatorNode&#45;&#45;GreaterEqualsThanOperatorNode -->
    <g
       id="edge110"
       class="edge">
      <title
         id="title672">RelationalLogicalOperatorNode--GreaterEqualsThanOperatorNode</title>
      <path
         style="fill:none;stroke:#000000"
         d="m 1112,-108 c 25,18 67,46 106,63 7,3 15,6 23,9"
         id="path674" />
    </g>
  </g>
</svg>
